<?xml version="1.0" encoding="UTF-8" standalone="no"?>
<!DOCTYPE svg PUBLIC "-//W3C//DTD SVG 1.1//EN"
 "http://www.w3.org/Graphics/SVG/1.1/DTD/svg11.dtd">
<!-- Generated by graphviz version 2.47.0 (20210316.0004)
 -->
<!-- Title: dependencies Pages: 1 -->
<svg width="3219pt" height="284pt"
 viewBox="0.00 0.00 3219.00 284.00" xmlns="http://www.w3.org/2000/svg" xmlns:xlink="http://www.w3.org/1999/xlink">
<g id="graph0" class="graph" transform="scale(1 1) rotate(0) translate(4 280)">
<title>dependencies</title>
<polygon fill="white" stroke="transparent" points="-4,4 -4,-280 3215,-280 3215,4 -4,4"/>
<text text-anchor="start" x="1584.51" y="-42.4" font-family="Times-12" font-weight="bold" font-size="14.00">Legend</text>
<polygon fill="#ffffb3" stroke="transparent" points="1371.5,-10 1371.5,-30 1391.5,-30 1391.5,-10 1371.5,-10"/>
<text text-anchor="start" x="1395.13" y="-15.4" font-family="Times-12" font-size="14.00"> &#160;Declarations</text>
<polygon fill="#8dd3c7" stroke="transparent" points="1484.5,-10 1484.5,-30 1504.5,-30 1504.5,-10 1484.5,-10"/>
<text text-anchor="start" x="1508.23" y="-15.4" font-family="Times-12" font-size="14.00"> &#160;Module</text>
<polygon fill="#80b1d3" stroke="transparent" points="1570.5,-10 1570.5,-30 1590.5,-30 1590.5,-10 1570.5,-10"/>
<text text-anchor="start" x="1594.28" y="-15.4" font-family="Times-12" font-size="14.00"> &#160;Bootstrap</text>
<polygon fill="#fdb462" stroke="transparent" points="1667.5,-10 1667.5,-30 1687.5,-30 1687.5,-10 1667.5,-10"/>
<text text-anchor="start" x="1691.17" y="-15.4" font-family="Times-12" font-size="14.00"> &#160;Providers</text>
<polygon fill="#fb8072" stroke="transparent" points="1763.5,-10 1763.5,-30 1783.5,-30 1783.5,-10 1763.5,-10"/>
<text text-anchor="start" x="1787.23" y="-15.4" font-family="Times-12" font-size="14.00"> &#160;Exports</text>
<g id="clust1" class="cluster">
<title>cluster_AppModule</title>
<polygon fill="none" stroke="black" stroke-dasharray="1,5" points="8,-70 8,-268 3203,-268 3203,-70 8,-70"/>
</g>
<g id="clust20" class="cluster">
<title>cluster_AppModule_imports</title>
<polygon fill="none" stroke="black" points="3051,-78 3051,-130 3195,-130 3195,-78 3051,-78"/>
</g>
<g id="clust22" class="cluster">
<title>cluster_AppModule_bootstrap</title>
<polygon fill="none" stroke="black" points="1494,-208 1494,-260 1618,-260 1618,-208 1494,-208"/>
</g>
<g id="clust23" class="cluster">
<title>cluster_AppModule_providers</title>
<polygon fill="none" stroke="black" points="2823,-78 2823,-130 3043,-130 3043,-78 2823,-78"/>
</g>
<g id="clust2" class="cluster">
<title>cluster_AppModule_declarations</title>
<polygon fill="none" stroke="black" points="16,-78 16,-130 2815,-130 2815,-78 16,-78"/>
</g>
<!-- ActivationComponent -->
<g id="node1" class="node">
<title>ActivationComponent</title>
<polygon fill="#ffffb3" stroke="black" points="2807.43,-122 2666.57,-122 2666.57,-86 2807.43,-86 2807.43,-122"/>
<text text-anchor="middle" x="2737" y="-99.8" font-family="Times,serif" font-size="14.00">ActivationComponent</text>
</g>
<!-- AppModule -->
<g id="node18" class="node">
<title>AppModule</title>
<polygon fill="#8dd3c7" stroke="black" points="1597.66,-187 1594.66,-191 1573.66,-191 1570.66,-187 1514.34,-187 1514.34,-151 1597.66,-151 1597.66,-187"/>
<text text-anchor="middle" x="1556" y="-164.8" font-family="Times,serif" font-size="14.00">AppModule</text>
</g>
<!-- ActivationComponent&#45;&gt;AppModule -->
<g id="edge1" class="edge">
<title>ActivationComponent&#45;&gt;AppModule</title>
<path fill="none" stroke="black" d="M2737,-122.04C2737,-143.66 2737,-177 2737,-177 2737,-177 1607.69,-177 1607.69,-177"/>
<polygon fill="black" stroke="black" points="1607.69,-173.5 1597.69,-177 1607.69,-180.5 1607.69,-173.5"/>
</g>
<!-- AppComponent -->
<g id="node2" class="node">
<title>AppComponent</title>
<polygon fill="#ffffb3" stroke="black" points="2648.94,-122 2543.06,-122 2543.06,-86 2648.94,-86 2648.94,-122"/>
<text text-anchor="middle" x="2596" y="-99.8" font-family="Times,serif" font-size="14.00">AppComponent</text>
</g>
<!-- AppComponent&#45;&gt;AppModule -->
<g id="edge2" class="edge">
<title>AppComponent&#45;&gt;AppModule</title>
<path fill="none" stroke="black" d="M2596,-122.13C2596,-142.57 2596,-173 2596,-173 2596,-173 1607.73,-173 1607.73,-173"/>
<polygon fill="black" stroke="black" points="1607.73,-169.5 1597.73,-173 1607.73,-176.5 1607.73,-169.5"/>
</g>
<!-- BackgroundVideoComponent -->
<g id="node3" class="node">
<title>BackgroundVideoComponent</title>
<polygon fill="#ffffb3" stroke="black" points="2524.97,-122 2341.03,-122 2341.03,-86 2524.97,-86 2524.97,-122"/>
<text text-anchor="middle" x="2433" y="-99.8" font-family="Times,serif" font-size="14.00">BackgroundVideoComponent</text>
</g>
<!-- BackgroundVideoComponent&#45;&gt;AppModule -->
<g id="edge3" class="edge">
<title>BackgroundVideoComponent&#45;&gt;AppModule</title>
<path fill="none" stroke="black" d="M2433,-122.11C2433,-141.34 2433,-169 2433,-169 2433,-169 1607.71,-169 1607.71,-169"/>
<polygon fill="black" stroke="black" points="1607.71,-165.5 1597.71,-169 1607.71,-172.5 1607.71,-165.5"/>
</g>
<!-- BrowseComponent -->
<g id="node4" class="node">
<title>BrowseComponent</title>
<polygon fill="#ffffb3" stroke="black" points="2323.1,-122 2198.9,-122 2198.9,-86 2323.1,-86 2323.1,-122"/>
<text text-anchor="middle" x="2261" y="-99.8" font-family="Times,serif" font-size="14.00">BrowseComponent</text>
</g>
<!-- BrowseComponent&#45;&gt;AppModule -->
<g id="edge4" class="edge">
<title>BrowseComponent&#45;&gt;AppModule</title>
<path fill="none" stroke="black" d="M2261,-122.27C2261,-140.56 2261,-166 2261,-166 2261,-166 1607.73,-166 1607.73,-166"/>
<polygon fill="black" stroke="black" points="1607.73,-162.5 1597.73,-166 1607.73,-169.5 1607.73,-162.5"/>
</g>
<!-- CategoryCarouselComponent -->
<g id="node5" class="node">
<title>CategoryCarouselComponent</title>
<polygon fill="#ffffb3" stroke="black" points="2181.41,-122 1998.59,-122 1998.59,-86 2181.41,-86 2181.41,-122"/>
<text text-anchor="middle" x="2090" y="-99.8" font-family="Times,serif" font-size="14.00">CategoryCarouselComponent</text>
</g>
<!-- CategoryCarouselComponent&#45;&gt;AppModule -->
<g id="edge5" class="edge">
<title>CategoryCarouselComponent&#45;&gt;AppModule</title>
<path fill="none" stroke="black" d="M2090,-122.03C2090,-139.06 2090,-162 2090,-162 2090,-162 1607.9,-162 1607.9,-162"/>
<polygon fill="black" stroke="black" points="1607.9,-158.5 1597.9,-162 1607.9,-165.5 1607.9,-158.5"/>
</g>
<!-- DatenschutzComponent -->
<g id="node6" class="node">
<title>DatenschutzComponent</title>
<polygon fill="#ffffb3" stroke="black" points="1981.02,-122 1830.98,-122 1830.98,-86 1981.02,-86 1981.02,-122"/>
<text text-anchor="middle" x="1906" y="-99.8" font-family="Times,serif" font-size="14.00">DatenschutzComponent</text>
</g>
<!-- DatenschutzComponent&#45;&gt;AppModule -->
<g id="edge6" class="edge">
<title>DatenschutzComponent&#45;&gt;AppModule</title>
<path fill="none" stroke="black" d="M1906,-122.01C1906,-138.05 1906,-159 1906,-159 1906,-159 1607.87,-159 1607.87,-159"/>
<polygon fill="black" stroke="black" points="1607.87,-155.5 1597.87,-159 1607.87,-162.5 1607.87,-155.5"/>
</g>
<!-- EmailverificationComponent -->
<g id="node7" class="node">
<title>EmailverificationComponent</title>
<polygon fill="#ffffb3" stroke="black" points="1812.8,-122 1633.2,-122 1633.2,-86 1812.8,-86 1812.8,-122"/>
<text text-anchor="middle" x="1723" y="-99.8" font-family="Times,serif" font-size="14.00">EmailverificationComponent</text>
</g>
<!-- EmailverificationComponent&#45;&gt;AppModule -->
<g id="edge7" class="edge">
<title>EmailverificationComponent&#45;&gt;AppModule</title>
<path fill="none" stroke="black" d="M1723,-122.12C1723,-136.78 1723,-155 1723,-155 1723,-155 1607.71,-155 1607.71,-155"/>
<polygon fill="black" stroke="black" points="1607.71,-151.5 1597.71,-155 1607.71,-158.5 1607.71,-151.5"/>
</g>
<!-- FooterComponent -->
<g id="node8" class="node">
<title>FooterComponent</title>
<polygon fill="#ffffb3" stroke="black" points="1614.88,-122 1497.12,-122 1497.12,-86 1614.88,-86 1614.88,-122"/>
<text text-anchor="middle" x="1556" y="-99.8" font-family="Times,serif" font-size="14.00">FooterComponent</text>
</g>
<!-- FooterComponent&#45;&gt;AppModule -->
<g id="edge8" class="edge">
<title>FooterComponent&#45;&gt;AppModule</title>
<path fill="none" stroke="black" d="M1556,-122.11C1556,-122.11 1556,-140.99 1556,-140.99"/>
<polygon fill="black" stroke="black" points="1552.5,-140.99 1556,-150.99 1559.5,-140.99 1552.5,-140.99"/>
</g>
<!-- HomeComponent -->
<g id="node9" class="node">
<title>HomeComponent</title>
<polygon fill="#ffffb3" stroke="black" points="1478.55,-122 1363.45,-122 1363.45,-86 1478.55,-86 1478.55,-122"/>
<text text-anchor="middle" x="1421" y="-99.8" font-family="Times,serif" font-size="14.00">HomeComponent</text>
</g>
<!-- HomeComponent&#45;&gt;AppModule -->
<g id="edge9" class="edge">
<title>HomeComponent&#45;&gt;AppModule</title>
<path fill="none" stroke="black" d="M1421,-122.12C1421,-136.78 1421,-155 1421,-155 1421,-155 1504.03,-155 1504.03,-155"/>
<polygon fill="black" stroke="black" points="1504.03,-158.5 1514.03,-155 1504.03,-151.5 1504.03,-158.5"/>
</g>
<!-- ImpressumComponent -->
<g id="node10" class="node">
<title>ImpressumComponent</title>
<polygon fill="#ffffb3" stroke="black" points="1344.54,-122 1201.46,-122 1201.46,-86 1344.54,-86 1344.54,-122"/>
<text text-anchor="middle" x="1273" y="-99.8" font-family="Times,serif" font-size="14.00">ImpressumComponent</text>
</g>
<!-- ImpressumComponent&#45;&gt;AppModule -->
<g id="edge10" class="edge">
<title>ImpressumComponent&#45;&gt;AppModule</title>
<path fill="none" stroke="black" d="M1273,-122.01C1273,-138.05 1273,-159 1273,-159 1273,-159 1504.24,-159 1504.24,-159"/>
<polygon fill="black" stroke="black" points="1504.24,-162.5 1514.24,-159 1504.24,-155.5 1504.24,-162.5"/>
</g>
<!-- LoginComponent -->
<g id="node11" class="node">
<title>LoginComponent</title>
<polygon fill="#ffffb3" stroke="black" points="1183.28,-122 1068.72,-122 1068.72,-86 1183.28,-86 1183.28,-122"/>
<text text-anchor="middle" x="1126" y="-99.8" font-family="Times,serif" font-size="14.00">LoginComponent</text>
</g>
<!-- LoginComponent&#45;&gt;AppModule -->
<g id="edge11" class="edge">
<title>LoginComponent&#45;&gt;AppModule</title>
<path fill="none" stroke="black" d="M1126,-122.03C1126,-139.06 1126,-162 1126,-162 1126,-162 1503.99,-162 1503.99,-162"/>
<polygon fill="black" stroke="black" points="1503.99,-165.5 1513.99,-162 1503.99,-158.5 1503.99,-165.5"/>
</g>
<!-- RegisterComponent -->
<g id="node12" class="node">
<title>RegisterComponent</title>
<polygon fill="#ffffb3" stroke="black" points="1050.98,-122 923.02,-122 923.02,-86 1050.98,-86 1050.98,-122"/>
<text text-anchor="middle" x="987" y="-99.8" font-family="Times,serif" font-size="14.00">RegisterComponent</text>
</g>
<!-- RegisterComponent&#45;&gt;AppModule -->
<g id="edge12" class="edge">
<title>RegisterComponent&#45;&gt;AppModule</title>
<path fill="none" stroke="black" d="M987,-122.27C987,-140.56 987,-166 987,-166 987,-166 1504.16,-166 1504.16,-166"/>
<polygon fill="black" stroke="black" points="1504.16,-169.5 1514.16,-166 1504.16,-162.5 1504.16,-169.5"/>
</g>
<!-- TruncatePipe -->
<g id="node13" class="node">
<title>TruncatePipe</title>
<polygon fill="#ffffb3" stroke="black" points="905.14,-122 814.86,-122 814.86,-86 905.14,-86 905.14,-122"/>
<text text-anchor="middle" x="860" y="-99.8" font-family="Times,serif" font-size="14.00">TruncatePipe</text>
</g>
<!-- TruncatePipe&#45;&gt;AppModule -->
<g id="edge13" class="edge">
<title>TruncatePipe&#45;&gt;AppModule</title>
<path fill="none" stroke="black" d="M860,-122.11C860,-141.34 860,-169 860,-169 860,-169 1504.29,-169 1504.29,-169"/>
<polygon fill="black" stroke="black" points="1504.29,-172.5 1514.29,-169 1504.29,-165.5 1504.29,-172.5"/>
</g>
<!-- UserResetPasswordComponent -->
<g id="node14" class="node">
<title>UserResetPasswordComponent</title>
<polygon fill="#ffffb3" stroke="black" points="796.01,-122 603.99,-122 603.99,-86 796.01,-86 796.01,-122"/>
<text text-anchor="middle" x="700" y="-99.8" font-family="Times,serif" font-size="14.00">UserResetPasswordComponent</text>
</g>
<!-- UserResetPasswordComponent&#45;&gt;AppModule -->
<g id="edge14" class="edge">
<title>UserResetPasswordComponent&#45;&gt;AppModule</title>
<path fill="none" stroke="black" d="M700,-122.13C700,-142.57 700,-173 700,-173 700,-173 1504.13,-173 1504.13,-173"/>
<polygon fill="black" stroke="black" points="1504.13,-176.5 1514.13,-173 1504.13,-169.5 1504.13,-176.5"/>
</g>
<!-- UserconfirmnewpasswordComponent -->
<g id="node15" class="node">
<title>UserconfirmnewpasswordComponent</title>
<polygon fill="#ffffb3" stroke="black" points="586.27,-122 357.73,-122 357.73,-86 586.27,-86 586.27,-122"/>
<text text-anchor="middle" x="472" y="-99.8" font-family="Times,serif" font-size="14.00">UserconfirmnewpasswordComponent</text>
</g>
<!-- UserconfirmnewpasswordComponent&#45;&gt;AppModule -->
<g id="edge15" class="edge">
<title>UserconfirmnewpasswordComponent&#45;&gt;AppModule</title>
<path fill="none" stroke="black" d="M472,-122.04C472,-143.66 472,-177 472,-177 472,-177 1504.17,-177 1504.17,-177"/>
<polygon fill="black" stroke="black" points="1504.17,-180.5 1514.17,-177 1504.17,-173.5 1504.17,-180.5"/>
</g>
<!-- VideoPlayerComponent -->
<g id="node16" class="node">
<title>VideoPlayerComponent</title>
<polygon fill="#ffffb3" stroke="black" points="339.81,-122 188.19,-122 188.19,-86 339.81,-86 339.81,-122"/>
<text text-anchor="middle" x="264" y="-99.8" font-family="Times,serif" font-size="14.00">VideoPlayerComponent</text>
</g>
<!-- VideoPlayerComponent&#45;&gt;AppModule -->
<g id="edge16" class="edge">
<title>VideoPlayerComponent&#45;&gt;AppModule</title>
<path fill="none" stroke="black" d="M264,-122.01C264,-144.49 264,-180 264,-180 264,-180 1504.11,-180 1504.11,-180"/>
<polygon fill="black" stroke="black" points="1504.11,-183.5 1514.11,-180 1504.11,-176.5 1504.11,-183.5"/>
</g>
<!-- VideodetailComponent -->
<g id="node17" class="node">
<title>VideodetailComponent</title>
<polygon fill="#ffffb3" stroke="black" points="170.15,-122 23.85,-122 23.85,-86 170.15,-86 170.15,-122"/>
<text text-anchor="middle" x="97" y="-99.8" font-family="Times,serif" font-size="14.00">VideodetailComponent</text>
</g>
<!-- VideodetailComponent&#45;&gt;AppModule -->
<g id="edge17" class="edge">
<title>VideodetailComponent&#45;&gt;AppModule</title>
<path fill="none" stroke="black" d="M97,-122.15C97,-145.76 97,-184 97,-184 97,-184 1504.3,-184 1504.3,-184"/>
<polygon fill="black" stroke="black" points="1504.3,-187.5 1514.3,-184 1504.3,-180.5 1504.3,-187.5"/>
</g>
<!-- AppComponent  -->
<g id="node20" class="node">
<title>AppComponent </title>
<polygon fill="#80b1d3" stroke="black" points="1610.44,-252 1501.56,-252 1501.56,-216 1610.44,-216 1610.44,-252"/>
<text text-anchor="middle" x="1556" y="-229.8" font-family="Times,serif" font-size="14.00">AppComponent </text>
</g>
<!-- AppModule&#45;&gt;AppComponent  -->
<g id="edge19" class="edge">
<title>AppModule&#45;&gt;AppComponent </title>
<path fill="none" stroke="black" stroke-dasharray="1,5" d="M1556,-187.11C1556,-187.11 1556,-205.99 1556,-205.99"/>
<polygon fill="black" stroke="black" points="1552.5,-205.99 1556,-215.99 1559.5,-205.99 1552.5,-205.99"/>
</g>
<!-- AppRoutingModule -->
<g id="node19" class="node">
<title>AppRoutingModule</title>
<polygon fill="#8dd3c7" stroke="black" points="3187.27,-122 3184.27,-126 3163.27,-126 3160.27,-122 3058.73,-122 3058.73,-86 3187.27,-86 3187.27,-122"/>
<text text-anchor="middle" x="3123" y="-99.8" font-family="Times,serif" font-size="14.00">AppRoutingModule</text>
</g>
<!-- AppRoutingModule&#45;&gt;AppModule -->
<g id="edge18" class="edge">
<title>AppRoutingModule&#45;&gt;AppModule</title>
<path fill="none" stroke="black" d="M3123,-122.15C3123,-145.76 3123,-184 3123,-184 3123,-184 1607.91,-184 1607.91,-184"/>
<polygon fill="black" stroke="black" points="1607.91,-180.5 1597.91,-184 1607.91,-187.5 1607.91,-180.5"/>
</g>
<!-- AuthInterceptorService -->
<g id="node21" class="node">
<title>AuthInterceptorService</title>
<ellipse fill="#fdb462" stroke="black" cx="2933" cy="-104" rx="101.82" ry="18"/>
<text text-anchor="middle" x="2933" y="-99.8" font-family="Times,serif" font-size="14.00">AuthInterceptorService</text>
</g>
<!-- AuthInterceptorService&#45;&gt;AppModule -->
<g id="edge20" class="edge">
<title>AuthInterceptorService&#45;&gt;AppModule</title>
<path fill="none" stroke="black" d="M2933,-122.01C2933,-144.49 2933,-180 2933,-180 2933,-180 1607.96,-180 1607.96,-180"/>
<polygon fill="black" stroke="black" points="1607.96,-176.5 1597.96,-180 1607.96,-183.5 1607.96,-176.5"/>
</g>
</g>
</svg>
