<?xml version="1.0" encoding="UTF-8" standalone="no"?>
<!DOCTYPE svg PUBLIC "-//W3C//DTD SVG 1.1//EN"
 "http://www.w3.org/Graphics/SVG/1.1/DTD/svg11.dtd">
<!-- Generated by graphviz version 2.47.0 (20210316.0004)
 -->
<!-- Title: dependencies Pages: 1 -->
<svg width="3219pt" height="284pt"
 viewBox="0.00 0.00 3219.00 284.00" xmlns="http://www.w3.org/2000/svg" xmlns:xlink="http://www.w3.org/1999/xlink">
<g id="graph0" class="graph" transform="scale(1 1) rotate(0) translate(4 280)">
<title>dependencies</title>
<polygon fill="white" stroke="transparent" points="-4,4 -4,-280 3215,-280 3215,4 -4,4"/>
<text text-anchor="start" x="1584.51" y="-42.4" font-family="Times-12" font-weight="bold" font-size="14.00">Legend</text>
<polygon fill="#ffffb3" stroke="transparent" points="1371.5,-10 1371.5,-30 1391.5,-30 1391.5,-10 1371.5,-10"/>
<text text-anchor="start" x="1395.13" y="-15.4" font-family="Times-12" font-size="14.00"> &#160;Declarations</text>
<polygon fill="#8dd3c7" stroke="transparent" points="1484.5,-10 1484.5,-30 1504.5,-30 1504.5,-10 1484.5,-10"/>
<text text-anchor="start" x="1508.23" y="-15.4" font-family="Times-12" font-size="14.00"> &#160;Module</text>
<polygon fill="#80b1d3" stroke="transparent" points="1570.5,-10 1570.5,-30 1590.5,-30 1590.5,-10 1570.5,-10"/>
<text text-anchor="start" x="1594.28" y="-15.4" font-family="Times-12" font-size="14.00"> &#160;Bootstrap</text>
<polygon fill="#fdb462" stroke="transparent" points="1667.5,-10 1667.5,-30 1687.5,-30 1687.5,-10 1667.5,-10"/>
<text text-anchor="start" x="1691.17" y="-15.4" font-family="Times-12" font-size="14.00"> &#160;Providers</text>
<polygon fill="#fb8072" stroke="transparent" points="1763.5,-10 1763.5,-30 1783.5,-30 1783.5,-10 1763.5,-10"/>
<text text-anchor="start" x="1787.23" y="-15.4" font-family="Times-12" font-size="14.00"> &#160;Exports</text>
<g id="clust1" class="cluster">
<title>cluster_AppModule</title>
<polygon fill="none" stroke="black" stroke-dasharray="1,5" points="8,-70 8,-268 3203,-268 3203,-70 8,-70"/>
</g>
<g id="clust2" class="cluster">
<title>cluster_AppModule_declarations</title>
<polygon fill="none" stroke="black" points="396,-78 396,-130 3195,-130 3195,-78 396,-78"/>
</g>
<g id="clust20" class="cluster">
<title>cluster_AppModule_imports</title>
<polygon fill="none" stroke="black" points="244,-78 244,-130 388,-130 388,-78 244,-78"/>
</g>
<g id="clust22" class="cluster">
<title>cluster_AppModule_bootstrap</title>
<polygon fill="none" stroke="black" points="1591,-208 1591,-260 1715,-260 1715,-208 1591,-208"/>
</g>
<g id="clust23" class="cluster">
<title>cluster_AppModule_providers</title>
<polygon fill="none" stroke="black" points="16,-78 16,-130 236,-130 236,-78 16,-78"/>
</g>
<!-- ActivationComponent -->
<g id="node1" class="node">
<title>ActivationComponent</title>
<polygon fill="#ffffb3" stroke="black" points="3187.43,-122 3046.57,-122 3046.57,-86 3187.43,-86 3187.43,-122"/>
<text text-anchor="middle" x="3117" y="-99.8" font-family="Times,serif" font-size="14.00">ActivationComponent</text>
</g>
<!-- AppModule -->
<g id="node18" class="node">
<title>AppModule</title>
<polygon fill="#8dd3c7" stroke="black" points="1694.66,-187 1691.66,-191 1670.66,-191 1667.66,-187 1611.34,-187 1611.34,-151 1694.66,-151 1694.66,-187"/>
<text text-anchor="middle" x="1653" y="-164.8" font-family="Times,serif" font-size="14.00">AppModule</text>
</g>
<!-- ActivationComponent&#45;&gt;AppModule -->
<g id="edge1" class="edge">
<title>ActivationComponent&#45;&gt;AppModule</title>
<path fill="none" stroke="black" d="M3117,-122.15C3117,-145.76 3117,-184 3117,-184 3117,-184 1704.85,-184 1704.85,-184"/>
<polygon fill="black" stroke="black" points="1704.85,-180.5 1694.85,-184 1704.85,-187.5 1704.85,-180.5"/>
</g>
<!-- AppComponent -->
<g id="node2" class="node">
<title>AppComponent</title>
<polygon fill="#ffffb3" stroke="black" points="3028.94,-122 2923.06,-122 2923.06,-86 3028.94,-86 3028.94,-122"/>
<text text-anchor="middle" x="2976" y="-99.8" font-family="Times,serif" font-size="14.00">AppComponent</text>
</g>
<!-- AppComponent&#45;&gt;AppModule -->
<g id="edge2" class="edge">
<title>AppComponent&#45;&gt;AppModule</title>
<path fill="none" stroke="black" d="M2976,-122.01C2976,-144.49 2976,-180 2976,-180 2976,-180 1704.78,-180 1704.78,-180"/>
<polygon fill="black" stroke="black" points="1704.78,-176.5 1694.78,-180 1704.78,-183.5 1704.78,-176.5"/>
</g>
<!-- BackgroundVideoComponent -->
<g id="node3" class="node">
<title>BackgroundVideoComponent</title>
<polygon fill="#ffffb3" stroke="black" points="2904.97,-122 2721.03,-122 2721.03,-86 2904.97,-86 2904.97,-122"/>
<text text-anchor="middle" x="2813" y="-99.8" font-family="Times,serif" font-size="14.00">BackgroundVideoComponent</text>
</g>
<!-- BackgroundVideoComponent&#45;&gt;AppModule -->
<g id="edge3" class="edge">
<title>BackgroundVideoComponent&#45;&gt;AppModule</title>
<path fill="none" stroke="black" d="M2813,-122.04C2813,-143.66 2813,-177 2813,-177 2813,-177 1704.97,-177 1704.97,-177"/>
<polygon fill="black" stroke="black" points="1704.97,-173.5 1694.97,-177 1704.97,-180.5 1704.97,-173.5"/>
</g>
<!-- BrowseComponent -->
<g id="node4" class="node">
<title>BrowseComponent</title>
<polygon fill="#ffffb3" stroke="black" points="2703.1,-122 2578.9,-122 2578.9,-86 2703.1,-86 2703.1,-122"/>
<text text-anchor="middle" x="2641" y="-99.8" font-family="Times,serif" font-size="14.00">BrowseComponent</text>
</g>
<!-- BrowseComponent&#45;&gt;AppModule -->
<g id="edge4" class="edge">
<title>BrowseComponent&#45;&gt;AppModule</title>
<path fill="none" stroke="black" d="M2641,-122.13C2641,-142.57 2641,-173 2641,-173 2641,-173 1704.82,-173 1704.82,-173"/>
<polygon fill="black" stroke="black" points="1704.82,-169.5 1694.82,-173 1704.82,-176.5 1704.82,-169.5"/>
</g>
<!-- CategoryCarouselComponent -->
<g id="node5" class="node">
<title>CategoryCarouselComponent</title>
<polygon fill="#ffffb3" stroke="black" points="2561.41,-122 2378.59,-122 2378.59,-86 2561.41,-86 2561.41,-122"/>
<text text-anchor="middle" x="2470" y="-99.8" font-family="Times,serif" font-size="14.00">CategoryCarouselComponent</text>
</g>
<!-- CategoryCarouselComponent&#45;&gt;AppModule -->
<g id="edge5" class="edge">
<title>CategoryCarouselComponent&#45;&gt;AppModule</title>
<path fill="none" stroke="black" d="M2470,-122.11C2470,-141.34 2470,-169 2470,-169 2470,-169 1704.92,-169 1704.92,-169"/>
<polygon fill="black" stroke="black" points="1704.92,-165.5 1694.92,-169 1704.92,-172.5 1704.92,-165.5"/>
</g>
<!-- DatenschutzComponent -->
<g id="node6" class="node">
<title>DatenschutzComponent</title>
<polygon fill="#ffffb3" stroke="black" points="2361.02,-122 2210.98,-122 2210.98,-86 2361.02,-86 2361.02,-122"/>
<text text-anchor="middle" x="2286" y="-99.8" font-family="Times,serif" font-size="14.00">DatenschutzComponent</text>
</g>
<!-- DatenschutzComponent&#45;&gt;AppModule -->
<g id="edge6" class="edge">
<title>DatenschutzComponent&#45;&gt;AppModule</title>
<path fill="none" stroke="black" d="M2286,-122.27C2286,-140.56 2286,-166 2286,-166 2286,-166 1705.02,-166 1705.02,-166"/>
<polygon fill="black" stroke="black" points="1705.02,-162.5 1695.02,-166 1705.02,-169.5 1705.02,-162.5"/>
</g>
<!-- EmailverificationComponent -->
<g id="node7" class="node">
<title>EmailverificationComponent</title>
<polygon fill="#ffffb3" stroke="black" points="2192.8,-122 2013.2,-122 2013.2,-86 2192.8,-86 2192.8,-122"/>
<text text-anchor="middle" x="2103" y="-99.8" font-family="Times,serif" font-size="14.00">EmailverificationComponent</text>
</g>
<!-- EmailverificationComponent&#45;&gt;AppModule -->
<g id="edge7" class="edge">
<title>EmailverificationComponent&#45;&gt;AppModule</title>
<path fill="none" stroke="black" d="M2103,-122.03C2103,-139.06 2103,-162 2103,-162 2103,-162 1704.93,-162 1704.93,-162"/>
<polygon fill="black" stroke="black" points="1704.93,-158.5 1694.93,-162 1704.93,-165.5 1704.93,-158.5"/>
</g>
<!-- FooterComponent -->
<g id="node8" class="node">
<title>FooterComponent</title>
<polygon fill="#ffffb3" stroke="black" points="1994.88,-122 1877.12,-122 1877.12,-86 1994.88,-86 1994.88,-122"/>
<text text-anchor="middle" x="1936" y="-99.8" font-family="Times,serif" font-size="14.00">FooterComponent</text>
</g>
<!-- FooterComponent&#45;&gt;AppModule -->
<g id="edge8" class="edge">
<title>FooterComponent&#45;&gt;AppModule</title>
<path fill="none" stroke="black" d="M1936,-122.01C1936,-138.05 1936,-159 1936,-159 1936,-159 1704.76,-159 1704.76,-159"/>
<polygon fill="black" stroke="black" points="1704.76,-155.5 1694.76,-159 1704.76,-162.5 1704.76,-155.5"/>
</g>
<!-- HomeComponent -->
<g id="node9" class="node">
<title>HomeComponent</title>
<polygon fill="#ffffb3" stroke="black" points="1858.55,-122 1743.45,-122 1743.45,-86 1858.55,-86 1858.55,-122"/>
<text text-anchor="middle" x="1801" y="-99.8" font-family="Times,serif" font-size="14.00">HomeComponent</text>
</g>
<!-- HomeComponent&#45;&gt;AppModule -->
<g id="edge9" class="edge">
<title>HomeComponent&#45;&gt;AppModule</title>
<path fill="none" stroke="black" d="M1801,-122.12C1801,-136.78 1801,-155 1801,-155 1801,-155 1705.01,-155 1705.01,-155"/>
<polygon fill="black" stroke="black" points="1705.02,-151.5 1695.01,-155 1705.01,-158.5 1705.02,-151.5"/>
</g>
<!-- ImpressumComponent -->
<g id="node10" class="node">
<title>ImpressumComponent</title>
<polygon fill="#ffffb3" stroke="black" points="1724.54,-122 1581.46,-122 1581.46,-86 1724.54,-86 1724.54,-122"/>
<text text-anchor="middle" x="1653" y="-99.8" font-family="Times,serif" font-size="14.00">ImpressumComponent</text>
</g>
<!-- ImpressumComponent&#45;&gt;AppModule -->
<g id="edge10" class="edge">
<title>ImpressumComponent&#45;&gt;AppModule</title>
<path fill="none" stroke="black" d="M1653,-122.11C1653,-122.11 1653,-140.99 1653,-140.99"/>
<polygon fill="black" stroke="black" points="1649.5,-140.99 1653,-150.99 1656.5,-140.99 1649.5,-140.99"/>
</g>
<!-- LoginComponent -->
<g id="node11" class="node">
<title>LoginComponent</title>
<polygon fill="#ffffb3" stroke="black" points="1563.28,-122 1448.72,-122 1448.72,-86 1563.28,-86 1563.28,-122"/>
<text text-anchor="middle" x="1506" y="-99.8" font-family="Times,serif" font-size="14.00">LoginComponent</text>
</g>
<!-- LoginComponent&#45;&gt;AppModule -->
<g id="edge11" class="edge">
<title>LoginComponent&#45;&gt;AppModule</title>
<path fill="none" stroke="black" d="M1506,-122.12C1506,-136.78 1506,-155 1506,-155 1506,-155 1601.27,-155 1601.27,-155"/>
<polygon fill="black" stroke="black" points="1601.27,-158.5 1611.27,-155 1601.27,-151.5 1601.27,-158.5"/>
</g>
<!-- RegisterComponent -->
<g id="node12" class="node">
<title>RegisterComponent</title>
<polygon fill="#ffffb3" stroke="black" points="1430.98,-122 1303.02,-122 1303.02,-86 1430.98,-86 1430.98,-122"/>
<text text-anchor="middle" x="1367" y="-99.8" font-family="Times,serif" font-size="14.00">RegisterComponent</text>
</g>
<!-- RegisterComponent&#45;&gt;AppModule -->
<g id="edge12" class="edge">
<title>RegisterComponent&#45;&gt;AppModule</title>
<path fill="none" stroke="black" d="M1367,-122.01C1367,-138.05 1367,-159 1367,-159 1367,-159 1601.11,-159 1601.11,-159"/>
<polygon fill="black" stroke="black" points="1601.11,-162.5 1611.11,-159 1601.11,-155.5 1601.11,-162.5"/>
</g>
<!-- TruncatePipe -->
<g id="node13" class="node">
<title>TruncatePipe</title>
<polygon fill="#ffffb3" stroke="black" points="1285.14,-122 1194.86,-122 1194.86,-86 1285.14,-86 1285.14,-122"/>
<text text-anchor="middle" x="1240" y="-99.8" font-family="Times,serif" font-size="14.00">TruncatePipe</text>
</g>
<!-- TruncatePipe&#45;&gt;AppModule -->
<g id="edge13" class="edge">
<title>TruncatePipe&#45;&gt;AppModule</title>
<path fill="none" stroke="black" d="M1240,-122.03C1240,-139.06 1240,-162 1240,-162 1240,-162 1601.13,-162 1601.13,-162"/>
<polygon fill="black" stroke="black" points="1601.13,-165.5 1611.13,-162 1601.13,-158.5 1601.13,-165.5"/>
</g>
<!-- UserResetPasswordComponent -->
<g id="node14" class="node">
<title>UserResetPasswordComponent</title>
<polygon fill="#ffffb3" stroke="black" points="1176.01,-122 983.99,-122 983.99,-86 1176.01,-86 1176.01,-122"/>
<text text-anchor="middle" x="1080" y="-99.8" font-family="Times,serif" font-size="14.00">UserResetPasswordComponent</text>
</g>
<!-- UserResetPasswordComponent&#45;&gt;AppModule -->
<g id="edge14" class="edge">
<title>UserResetPasswordComponent&#45;&gt;AppModule</title>
<path fill="none" stroke="black" d="M1080,-122.27C1080,-140.56 1080,-166 1080,-166 1080,-166 1601.33,-166 1601.33,-166"/>
<polygon fill="black" stroke="black" points="1601.33,-169.5 1611.33,-166 1601.33,-162.5 1601.33,-169.5"/>
</g>
<!-- UserconfirmnewpasswordComponent -->
<g id="node15" class="node">
<title>UserconfirmnewpasswordComponent</title>
<polygon fill="#ffffb3" stroke="black" points="966.27,-122 737.73,-122 737.73,-86 966.27,-86 966.27,-122"/>
<text text-anchor="middle" x="852" y="-99.8" font-family="Times,serif" font-size="14.00">UserconfirmnewpasswordComponent</text>
</g>
<!-- UserconfirmnewpasswordComponent&#45;&gt;AppModule -->
<g id="edge15" class="edge">
<title>UserconfirmnewpasswordComponent&#45;&gt;AppModule</title>
<path fill="none" stroke="black" d="M852,-122.11C852,-141.34 852,-169 852,-169 852,-169 1601.34,-169 1601.34,-169"/>
<polygon fill="black" stroke="black" points="1601.34,-172.5 1611.34,-169 1601.34,-165.5 1601.34,-172.5"/>
</g>
<!-- VideoPlayerComponent -->
<g id="node16" class="node">
<title>VideoPlayerComponent</title>
<polygon fill="#ffffb3" stroke="black" points="719.81,-122 568.19,-122 568.19,-86 719.81,-86 719.81,-122"/>
<text text-anchor="middle" x="644" y="-99.8" font-family="Times,serif" font-size="14.00">VideoPlayerComponent</text>
</g>
<!-- VideoPlayerComponent&#45;&gt;AppModule -->
<g id="edge16" class="edge">
<title>VideoPlayerComponent&#45;&gt;AppModule</title>
<path fill="none" stroke="black" d="M644,-122.13C644,-142.57 644,-173 644,-173 644,-173 1601.25,-173 1601.25,-173"/>
<polygon fill="black" stroke="black" points="1601.25,-176.5 1611.25,-173 1601.25,-169.5 1601.25,-176.5"/>
</g>
<!-- VideodetailComponent -->
<g id="node17" class="node">
<title>VideodetailComponent</title>
<polygon fill="#ffffb3" stroke="black" points="550.15,-122 403.85,-122 403.85,-86 550.15,-86 550.15,-122"/>
<text text-anchor="middle" x="477" y="-99.8" font-family="Times,serif" font-size="14.00">VideodetailComponent</text>
</g>
<!-- VideodetailComponent&#45;&gt;AppModule -->
<g id="edge17" class="edge">
<title>VideodetailComponent&#45;&gt;AppModule</title>
<path fill="none" stroke="black" d="M477,-122.04C477,-143.66 477,-177 477,-177 477,-177 1601.15,-177 1601.15,-177"/>
<polygon fill="black" stroke="black" points="1601.15,-180.5 1611.15,-177 1601.15,-173.5 1601.15,-180.5"/>
</g>
<!-- AppComponent  -->
<g id="node20" class="node">
<title>AppComponent </title>
<polygon fill="#80b1d3" stroke="black" points="1707.44,-252 1598.56,-252 1598.56,-216 1707.44,-216 1707.44,-252"/>
<text text-anchor="middle" x="1653" y="-229.8" font-family="Times,serif" font-size="14.00">AppComponent </text>
</g>
<!-- AppModule&#45;&gt;AppComponent  -->
<g id="edge19" class="edge">
<title>AppModule&#45;&gt;AppComponent </title>
<path fill="none" stroke="black" stroke-dasharray="1,5" d="M1653,-187.11C1653,-187.11 1653,-205.99 1653,-205.99"/>
<polygon fill="black" stroke="black" points="1649.5,-205.99 1653,-215.99 1656.5,-205.99 1649.5,-205.99"/>
</g>
<!-- AppRoutingModule -->
<g id="node19" class="node">
<title>AppRoutingModule</title>
<polygon fill="#8dd3c7" stroke="black" points="380.27,-122 377.27,-126 356.27,-126 353.27,-122 251.73,-122 251.73,-86 380.27,-86 380.27,-122"/>
<text text-anchor="middle" x="316" y="-99.8" font-family="Times,serif" font-size="14.00">AppRoutingModule</text>
</g>
<!-- AppRoutingModule&#45;&gt;AppModule -->
<g id="edge18" class="edge">
<title>AppRoutingModule&#45;&gt;AppModule</title>
<path fill="none" stroke="black" d="M316,-122.01C316,-144.49 316,-180 316,-180 316,-180 1601.15,-180 1601.15,-180"/>
<polygon fill="black" stroke="black" points="1601.15,-183.5 1611.15,-180 1601.15,-176.5 1601.15,-183.5"/>
</g>
<!-- AuthInterceptorService -->
<g id="node21" class="node">
<title>AuthInterceptorService</title>
<ellipse fill="#fdb462" stroke="black" cx="126" cy="-104" rx="101.82" ry="18"/>
<text text-anchor="middle" x="126" y="-99.8" font-family="Times,serif" font-size="14.00">AuthInterceptorService</text>
</g>
<!-- AuthInterceptorService&#45;&gt;AppModule -->
<g id="edge20" class="edge">
<title>AuthInterceptorService&#45;&gt;AppModule</title>
<path fill="none" stroke="black" d="M126,-122.15C126,-145.76 126,-184 126,-184 126,-184 1600.97,-184 1600.97,-184"/>
<polygon fill="black" stroke="black" points="1600.97,-187.5 1610.97,-184 1600.97,-180.5 1600.97,-187.5"/>
</g>
</g>
</svg>
